<?xml version="1.0" encoding="UTF-8"?>
<svg id="Calque_2" data-name="Calque 2" xmlns="http://www.w3.org/2000/svg" viewBox="0 0 29.13 29.13">
  <defs>
    <style>
      .cls-1 {
        fill: #fefefe;
      }

      .cls-1, .cls-2 {
        stroke-width: 0px;
      }

      .cls-2 {
        fill: #df6a56;
      }
    </style>
  </defs>
  <g id="Graphic_Elements" data-name="Graphic Elements">
    <circle class="cls-2" cx="14.56" cy="14.56" r="14.56"/>
    <g>
      <path class="cls-1" d="m15.69,12.58c.24-.27.44-.54.68-.77.76-.71,1.65-1.07,2.69-1.06.57,0,1.14.05,1.69.21,1.26.37,2,1.24,2.35,2.47.26.93.31,1.88.31,2.83,0,2.01,0,4.02,0,6.04,0,.19-.05.24-.24.24-1.04,0-2.07,0-3.11,0-.18,0-.22-.05-.22-.23,0-1.91,0-3.83,0-5.74,0-.48-.03-.96-.17-1.43-.25-.86-.86-1.3-1.76-1.25-1.23.06-1.87.67-2.02,1.92-.04.3-.06.6-.05.9,0,1.86,0,3.72,0,5.59,0,.19-.05.24-.24.24-1.04,0-2.09,0-3.13,0-.17,0-.22-.04-.22-.21,0-3.69,0-7.37,0-11.06,0-.18.06-.22.23-.22.99,0,1.98,0,2.97,0,.18,0,.23.06.23.23-.01.44,0,.88,0,1.32Z"/>
      <path class="cls-1" d="m10.01,16.79c0,1.82,0,3.65,0,5.47,0,.2-.05.26-.26.26-1.04-.01-2.07,0-3.11,0-.17,0-.22-.04-.22-.21,0-3.69,0-7.38,0-11.08,0-.15.04-.21.2-.21,1.05,0,2.1,0,3.15,0,.2,0,.23.08.23.25,0,1.84,0,3.68,0,5.52Z"/>
      <path class="cls-1" d="m10.3,7.37c0,1.14-.93,2.08-2.07,2.08-1.13,0-2.06-.93-2.07-2.06,0-1.14.93-2.08,2.07-2.08,1.13,0,2.06.93,2.07,2.06Z"/>
    </g>
  </g>
</svg>