<svg width="226" height="52" viewBox="0 0 226 52" fill="none" xmlns="http://www.w3.org/2000/svg">
<path d="M25.275 49.5C25.275 49.5 25.275 49.515 25.275 49.5225H9.23999C9.23999 49.5225 9.23999 49.5075 9.23999 49.5C9.26999 49.4625 9.31499 49.4475 9.35999 49.4475C9.41999 49.4475 9.47999 49.4475 9.54749 49.4475C14.685 49.4475 19.8225 49.4475 24.96 49.4475C25.02 49.4475 25.08 49.4475 25.1475 49.4475C25.1925 49.4475 25.2375 49.4625 25.2675 49.5H25.275Z" fill="#DF6A56"/>
<path d="M12.6601 0C15.2701 0 17.8801 0 20.4901 0C20.6151 0 20.6776 0.0625 20.6776 0.1875C20.6776 0.63 20.6776 1.0725 20.6776 1.5075C20.6776 1.6275 20.6176 1.6875 20.4976 1.6875C17.5651 1.6875 14.6401 1.6875 11.7076 1.6875C9.41256 1.6875 7.11756 1.6875 4.81506 1.6875C4.69006 1.6875 4.62756 1.625 4.62756 1.5C4.62756 1.0575 4.62756 0.615 4.62756 0.18C4.62756 0.06 4.68756 0 4.80756 0C7.42506 0 10.0426 0 12.6601 0Z" fill="#DF6A56"/>
<path d="M8.43754 8.58752C5.83504 8.58752 3.22504 8.58752 0.622544 8.58752C0.487544 8.58752 0.420044 8.52252 0.420044 8.39252C0.420044 7.95752 0.420044 7.51502 0.420044 7.08002C0.420044 6.95502 0.482544 6.89252 0.607544 6.89252C3.72004 6.89252 6.83254 6.89252 9.94504 6.89252C12.0525 6.89252 14.16 6.89252 16.2675 6.89252C16.3975 6.89252 16.4625 6.95502 16.4625 7.08002C16.4625 7.51502 16.4625 7.95752 16.4625 8.39252C16.4625 8.52252 16.395 8.58752 16.26 8.58752C13.6575 8.58752 11.0475 8.58752 8.44504 8.58752H8.43754Z" fill="#DF6A56"/>
<path d="M8.04 13.74C10.6275 13.74 13.2225 13.74 15.81 13.74C15.8475 13.74 15.885 13.74 15.9225 13.74C16.0125 13.7325 16.0425 13.7775 16.0425 13.86C16.0425 14.19 16.0425 14.5275 16.0425 14.8575C16.0425 15.015 16.0425 15.165 16.0425 15.3225C16.0425 15.3975 16.0125 15.435 15.93 15.435C15.8925 15.435 15.8625 15.435 15.825 15.435C10.62 15.435 5.4225 15.435 0.2175 15.435C0.1875 15.435 0.165 15.435 0.135 15.435C0.03 15.45 0 15.3975 0 15.3C0 14.835 0 14.37 0 13.905C0 13.74 0 13.74 0.165 13.74C2.04 13.74 3.915 13.74 5.79 13.74C6.5325 13.74 7.2825 13.74 8.025 13.74H8.04Z" fill="#DF6A56"/>
<path d="M16.8525 28.89C14.2725 28.89 11.685 28.89 9.10497 28.89C9.06747 28.89 9.02997 28.89 8.99247 28.89C8.88747 28.8975 8.84997 28.86 8.84997 28.755C8.84997 28.335 8.84997 27.915 8.84997 27.4875C8.84997 27.1575 8.80497 27.195 9.13497 27.195C14.31 27.195 19.485 27.195 24.6675 27.195C24.8125 27.195 24.885 27.265 24.885 27.405C24.885 27.8325 24.885 28.26 24.885 28.695C24.885 28.825 24.8225 28.89 24.6975 28.89C22.0875 28.89 19.47 28.89 16.86 28.89H16.8525Z" fill="#DF6A56"/>
<path d="M21.795 35.76C19.2075 35.76 16.6125 35.76 14.025 35.76C13.9875 35.76 13.95 35.76 13.9125 35.76C13.8225 35.76 13.7925 35.7225 13.7925 35.6325C13.7925 35.34 13.7925 35.055 13.7925 34.7625C13.7925 34.5675 13.7925 34.3725 13.7925 34.185C13.7925 34.095 13.83 34.0575 13.92 34.065C13.9575 34.065 13.9875 34.065 14.025 34.065C19.2225 34.065 24.4125 34.065 29.61 34.065C29.755 34.065 29.8275 34.135 29.8275 34.275C29.8275 34.7175 29.8275 35.16 29.8275 35.595C29.8275 35.7525 29.8275 35.7525 29.6625 35.7525C27.045 35.7525 24.42 35.7525 21.8025 35.7525L21.795 35.76Z" fill="#DF6A56"/>
<path d="M22.2151 42.63C19.6201 42.63 17.0251 42.63 14.4301 42.63C14.1751 42.63 14.2051 42.6525 14.2051 42.3975C14.2051 41.9625 14.2051 41.52 14.2051 41.085C14.2051 40.965 14.2426 40.935 14.3551 40.935C15.8251 40.935 17.2951 40.935 18.7651 40.935C22.5076 40.935 26.2501 40.935 29.9926 40.935C30.0301 40.935 30.0676 40.935 30.1051 40.935C30.2101 40.9275 30.2401 40.9725 30.2401 41.07C30.2401 41.535 30.2401 42.0075 30.2401 42.4725C30.2401 42.6225 30.2401 42.63 30.0676 42.63C27.8851 42.63 25.6951 42.63 23.5126 42.63C23.0776 42.63 22.6501 42.63 22.2151 42.63Z" fill="#DF6A56"/>
<path d="M25.2749 49.5C20.8349 49.5 16.4024 49.5 11.9624 49.5C11.0549 49.5 10.1549 49.5 9.24744 49.5C9.24744 48.975 9.24744 48.4575 9.24744 47.9325C9.24744 47.835 9.28494 47.7975 9.37494 47.805C9.40494 47.805 9.43494 47.805 9.46494 47.805C14.6624 47.805 19.8599 47.805 25.0499 47.805C25.0799 47.805 25.1099 47.805 25.1399 47.805C25.2299 47.7975 25.2749 47.835 25.2674 47.9325C25.2674 48.4575 25.2674 48.975 25.2674 49.5H25.2749Z" fill="#DF6A56"/>
<path d="M12.2924 22.35C9.6974 22.35 7.0949 22.35 4.4999 22.35C4.4549 22.35 4.4174 22.35 4.3724 22.35C4.3049 22.35 4.2749 22.32 4.2749 22.2525C4.2749 21.765 4.2749 21.27 4.2749 20.7825C4.2749 20.7075 4.3049 20.6775 4.3799 20.6775C4.4174 20.6775 4.4549 20.6775 4.4924 20.6775C9.6899 20.6775 14.8874 20.6775 20.0924 20.6775C20.1224 20.6775 20.1449 20.6775 20.1749 20.6775C20.2799 20.67 20.3099 20.715 20.3099 20.8125C20.3099 21.2775 20.3099 21.7425 20.3099 22.2075C20.3099 22.35 20.3099 22.3575 20.1599 22.3575C19.5599 22.3575 18.9524 22.3575 18.3524 22.3575C16.3349 22.3575 14.3174 22.3575 12.2999 22.3575L12.2924 22.35Z" fill="#DF6A56"/>
<path d="M38.5422 48.93V35.4375H46.1397V36.8625H40.3197V41.4375H44.9172V42.84H40.3197V48.9375H38.5497L38.5422 48.93Z" fill="#DF6A56"/>
<path d="M49.8522 43.3575V48.93H48.0822V35.4375H52.4622C53.9847 35.4375 55.1397 35.805 55.9347 36.5475C56.7297 37.29 57.1347 38.19 57.1347 39.2625C57.1347 40.335 56.8422 41.2275 56.2572 41.94C55.6722 42.6525 54.7947 43.1025 53.6322 43.2825L57.3522 48.93H55.1322L51.5847 43.3575H49.8522ZM49.8522 36.855V41.955H52.4622C53.4372 41.955 54.1572 41.73 54.6372 41.28C55.1172 40.83 55.3497 40.2075 55.3497 39.3975C55.3497 37.695 54.3897 36.8475 52.4697 36.8475H49.8597L49.8522 36.855Z" fill="#DF6A56"/>
<path d="M67.2447 35.43V36.8325H61.8672V41.43H66.6597V42.81H61.8672V47.52H67.2447V48.9225H60.0972V35.43H67.2447ZM61.3047 33.33L65.4522 30.8775V32.5125L61.3047 34.695V33.33Z" fill="#DF6A56"/>
<path d="M74.1972 35.43C76.3797 35.43 78.0972 36.0375 79.3572 37.26C80.6172 38.4825 81.2472 40.14 81.2472 42.2475C81.2472 44.355 80.6172 45.99 79.3572 47.1675C78.0972 48.345 76.3797 48.93 74.1972 48.93H69.9297V35.4375H74.1972V35.43ZM71.7072 47.565H74.1972C75.8997 47.565 77.1972 47.1 78.0897 46.1625C78.9822 45.225 79.4322 43.92 79.4322 42.2475C79.4322 40.575 78.9822 39.27 78.0897 38.3325C77.1972 37.395 75.8922 36.93 74.1972 36.93H71.7072V47.565Z" fill="#DF6A56"/>
<path d="M90.6298 35.43V36.8325H85.2523V41.43H90.0448V42.81H85.2523V47.52H90.6298V48.9225H83.4823V35.43H90.6298ZM84.6898 33.33L88.8373 30.8775V32.5125L84.6898 34.695V33.33Z" fill="#DF6A56"/>
<path d="M95.0923 43.3575V48.93H93.3223V35.4375H97.7023C99.2248 35.4375 100.38 35.805 101.175 36.5475C101.97 37.29 102.375 38.19 102.375 39.2625C102.375 40.335 102.082 41.2275 101.497 41.94C100.912 42.6525 100.035 43.1025 98.8723 43.2825L102.592 48.93H100.372L96.8248 43.3575H95.0923ZM95.0923 36.855V41.955H97.7023C98.6773 41.955 99.3973 41.73 99.8773 41.28C100.357 40.83 100.59 40.2075 100.59 39.3975C100.59 37.695 99.6298 36.8475 97.7098 36.8475H95.0998L95.0923 36.855Z" fill="#DF6A56"/>
<path d="M105.337 48.93V35.4375H107.107V48.93H105.337Z" fill="#DF6A56"/>
<path d="M116.205 49.065C114.27 49.065 112.642 48.4125 111.315 47.1075C109.987 45.8025 109.327 44.1525 109.327 42.1575C109.327 40.1625 109.987 38.52 111.315 37.23C112.642 35.94 114.27 35.295 116.205 35.295C118.14 35.295 119.767 35.94 121.08 37.23C122.4 38.52 123.06 40.17 123.06 42.165C123.06 43.4475 122.775 44.6025 122.205 45.63C121.635 46.6575 120.847 47.4675 119.85 48.0675L123.3 51.4725H120.96L118.237 48.765C117.615 48.96 116.94 49.0575 116.212 49.0575L116.205 49.065ZM112.552 38.325C111.6 39.2925 111.12 40.575 111.12 42.1725C111.12 43.77 111.6 45.0525 112.56 46.0275C113.52 47.0025 114.735 47.49 116.205 47.49C117.675 47.49 118.882 47.0025 119.827 46.0275C120.772 45.0525 121.252 43.77 121.252 42.1725C121.252 40.575 120.78 39.2925 119.827 38.325C118.882 37.3575 117.667 36.8775 116.197 36.8775C114.727 36.8775 113.512 37.365 112.552 38.325Z" fill="#DF6A56"/>
<path d="M125.295 44.1975V35.4375H127.087V44.1975C127.087 45.315 127.38 46.1475 127.972 46.7025C128.565 47.2575 129.375 47.5275 130.417 47.5275C131.46 47.5275 132.277 47.25 132.87 46.7025C133.47 46.1475 133.762 45.315 133.762 44.1975V35.4375H135.532V44.1975C135.532 45.78 135.045 46.9875 134.085 47.82C133.117 48.6525 131.887 49.065 130.402 49.065C128.917 49.065 127.695 48.6525 126.735 47.82C125.775 46.9875 125.295 45.78 125.295 44.1975Z" fill="#DF6A56"/>
<path d="M145.567 35.43V36.8325H140.19V41.43H144.982V42.81H140.19V47.52H145.567V48.9225H138.42V35.43H145.567Z" fill="#DF6A56"/>
<path d="M161.955 36.54C162.75 37.2825 163.155 38.2275 163.155 39.3825C163.155 40.5375 162.765 41.49 162 42.2325C161.227 42.9825 160.057 43.35 158.482 43.35H155.872V48.9225H154.102V35.43H158.482C160.005 35.43 161.16 35.7975 161.955 36.54ZM155.872 41.955H158.482C159.457 41.955 160.177 41.73 160.657 41.28C161.137 40.83 161.37 40.2075 161.37 39.3975C161.37 37.695 160.41 36.8475 158.49 36.8475H155.88V41.9475L155.872 41.955Z" fill="#DF6A56"/>
<path d="M174.66 48.93L173.61 45.9675H167.61L166.56 48.93H164.752L169.657 35.4375H171.607L176.497 48.93H174.667H174.66ZM168.12 44.565H173.107L170.617 37.59L168.127 44.565H168.12Z" fill="#DF6A56"/>
<path d="M180.247 39.0374C180.247 39.5324 180.382 39.9374 180.66 40.2674C180.93 40.5899 181.282 40.8299 181.71 40.9874C182.137 41.1449 182.617 41.2799 183.142 41.3999C183.667 41.5199 184.192 41.6474 184.717 41.7974C185.242 41.9474 185.722 42.1349 186.15 42.3749C186.577 42.6074 186.93 42.9599 187.2 43.4249C187.47 43.8899 187.612 44.4674 187.612 45.1574C187.612 46.2074 187.207 47.1224 186.405 47.9024C185.602 48.6824 184.515 49.0724 183.142 49.0724C181.77 49.0724 180.66 48.7574 179.805 48.1274C178.95 47.4974 178.522 46.6424 178.522 45.5699H180.412C180.465 46.1774 180.705 46.6724 181.14 47.0474C181.575 47.4224 182.22 47.6099 183.075 47.6099C183.93 47.6099 184.612 47.3924 185.122 46.9499C185.632 46.5074 185.88 45.9899 185.88 45.4049C185.88 44.8199 185.745 44.3624 185.475 44.0399C185.205 43.7249 184.852 43.4849 184.425 43.3274C183.997 43.1699 183.517 43.0424 182.992 42.9299C182.467 42.8174 181.942 42.6899 181.417 42.5324C180.892 42.3749 180.412 42.1799 179.985 41.9399C179.557 41.6999 179.205 41.3399 178.935 40.8674C178.665 40.3949 178.53 39.8024 178.53 39.1049C178.53 37.9649 178.935 37.0424 179.745 36.3524C180.555 35.6549 181.612 35.3099 182.917 35.3099C184.222 35.3099 185.257 35.6099 186.03 36.2174C186.802 36.8249 187.245 37.6574 187.365 38.7224H185.4C185.347 38.1899 185.1 37.7399 184.65 37.3574C184.2 36.9824 183.6 36.7949 182.835 36.7949C182.07 36.7949 181.455 36.9899 180.975 37.3724C180.495 37.7549 180.255 38.3174 180.255 39.0599L180.247 39.0374Z" fill="#DF6A56"/>
<path d="M189.637 36.855V35.43H198.54V36.855H194.977V48.93H193.207V36.855H189.645H189.637Z" fill="#DF6A56"/>
<path d="M207.045 49.065C205.11 49.065 203.482 48.4125 202.155 47.1075C200.827 45.8025 200.167 44.1525 200.167 42.1575C200.167 40.1625 200.827 38.52 202.155 37.23C203.482 35.94 205.11 35.295 207.045 35.295C208.98 35.295 210.607 35.94 211.92 37.23C213.24 38.52 213.9 40.17 213.9 42.165C213.9 44.16 213.24 45.81 211.92 47.115C210.6 48.4125 208.972 49.065 207.045 49.065ZM210.667 46.0275C211.612 45.0525 212.092 43.77 212.092 42.1725C212.092 40.575 211.62 39.2925 210.667 38.325C209.722 37.3575 208.507 36.8775 207.037 36.8775C205.567 36.8775 204.352 37.365 203.392 38.325C202.44 39.2925 201.96 40.575 201.96 42.1725C201.96 43.77 202.44 45.0525 203.4 46.0275C204.36 47.0025 205.575 47.49 207.045 47.49C208.515 47.49 209.722 47.0025 210.667 46.0275Z" fill="#DF6A56"/>
<path d="M217.875 43.3575V48.93H216.105V35.4375H220.485C222.007 35.4375 223.162 35.805 223.957 36.5475C224.752 37.29 225.157 38.19 225.157 39.2625C225.157 40.335 224.865 41.2275 224.28 41.94C223.695 42.6525 222.817 43.1025 221.655 43.2825L225.375 48.93H223.155L219.607 43.3575H217.875ZM217.875 36.855V41.955H220.485C221.46 41.955 222.18 41.73 222.66 41.28C223.14 40.83 223.372 40.2075 223.372 39.3975C223.372 37.695 222.412 36.8475 220.492 36.8475H217.882L217.875 36.855Z" fill="#DF6A56"/>
<path d="M44.955 14.1375H46.365V24.7425H44.955V19.9575H39.615V24.7425H38.22V14.1375H39.615V18.8475H44.955V14.1375Z" fill="#FEAE95"/>
<path d="M51.015 24.6L47.6925 16.3425H49.2225L51.795 23.1375L54.4125 16.3425H55.8525L50.79 28.6725H49.35L51.015 24.6Z" fill="#FEAE95"/>
<path d="M61.6799 16.2C62.8349 16.2 63.7874 16.5975 64.5449 17.385C65.3024 18.1725 65.6849 19.2075 65.6849 20.49C65.6849 21.7725 65.3024 22.8225 64.5374 23.64C63.7724 24.4575 62.8199 24.87 61.6799 24.87C60.9674 24.87 60.3374 24.6975 59.8049 24.36C59.2724 24.0225 58.8599 23.5725 58.5749 23.0175V28.71H57.1799V16.335H58.5749V18.015C58.8599 17.475 59.2724 17.0325 59.8049 16.7025C60.3374 16.3725 60.9674 16.2 61.6799 16.2ZM61.4099 23.6775C62.1899 23.6775 62.8574 23.385 63.4124 22.8C63.9674 22.215 64.2449 21.4425 64.2449 20.49C64.2449 19.5375 63.9674 18.7875 63.4124 18.2325C62.8574 17.6775 62.1899 17.4075 61.4099 17.4075C60.6299 17.4075 59.9624 17.6925 59.4074 18.2625C58.8524 18.8325 58.5749 19.59 58.5749 20.535C58.5749 21.48 58.8524 22.2375 59.4074 22.815C59.9624 23.3925 60.6299 23.6775 61.4099 23.6775Z" fill="#FEAE95"/>
<path d="M68.82 16.335V17.7C69.39 16.7025 70.305 16.2 71.5575 16.2C72.4875 16.2 73.26 16.5075 73.8825 17.1225C74.505 17.7375 74.8125 18.6225 74.8125 19.7625V24.735H73.4325V19.995C73.4325 19.1475 73.23 18.5025 72.8175 18.0675C72.4125 17.6325 71.85 17.4075 71.13 17.4075C70.41 17.4075 69.8475 17.625 69.435 18.0675C69.0225 18.5025 68.8125 19.1475 68.8125 19.995V24.735H67.4175V16.335H68.8125H68.82Z" fill="#FEAE95"/>
<path d="M77.64 23.685C76.8675 22.89 76.485 21.8475 76.485 20.55C76.485 19.2525 76.89 18.21 77.6925 17.4075C78.495 16.605 79.5075 16.2075 80.7225 16.2075C81.9375 16.2075 82.9425 16.605 83.7525 17.4075C84.555 18.21 84.96 19.2525 84.96 20.5425C84.96 21.8325 84.54 22.875 83.7 23.6775C82.86 24.48 81.8325 24.8775 80.6175 24.8775C79.4025 24.8775 78.4125 24.48 77.64 23.685ZM80.6175 23.73C81.405 23.73 82.08 23.445 82.6575 22.8825C83.235 22.32 83.52 21.5325 83.52 20.535C83.52 19.5375 83.2425 18.7575 82.695 18.195C82.1475 17.6325 81.4725 17.355 80.685 17.355C79.8975 17.355 79.2375 17.6325 78.705 18.195C78.1725 18.7575 77.91 19.5375 77.91 20.5425C77.91 21.5475 78.165 22.3275 78.675 22.89C79.185 23.4525 79.83 23.73 80.6175 23.73Z" fill="#FEAE95"/>
<path d="M86.3999 18.7125C86.3999 18.0075 86.6924 17.415 87.2774 16.9275C87.8624 16.44 88.6199 16.2 89.5574 16.2C90.4949 16.2 91.2224 16.44 91.7549 16.9125C92.2874 17.385 92.5724 18.0375 92.6249 18.8625H91.1849C91.1624 18.39 91.0049 18.015 90.7124 17.73C90.4199 17.445 90.0074 17.3025 89.4824 17.3025C88.9574 17.3025 88.5449 17.43 88.2449 17.6775C87.9449 17.925 87.7949 18.2475 87.7949 18.645C87.7949 19.0425 87.9674 19.3425 88.3049 19.5525C88.6499 19.77 89.0624 19.92 89.5424 20.0175C90.0224 20.115 90.5099 20.2275 90.9974 20.355C91.4849 20.4825 91.8974 20.7225 92.2349 21.075C92.5724 21.4275 92.7449 21.93 92.7449 22.575C92.7449 23.22 92.4524 23.7675 91.8674 24.21C91.2824 24.6525 90.5174 24.8775 89.5799 24.8775C88.6424 24.8775 87.8924 24.645 87.3224 24.1725C86.7599 23.7075 86.4449 23.055 86.3999 22.23H87.8399C87.8624 22.7025 88.0274 23.0775 88.3349 23.355C88.6424 23.6325 89.0774 23.775 89.6174 23.775C90.1574 23.775 90.5924 23.655 90.8999 23.4225C91.2074 23.19 91.3649 22.89 91.3649 22.53C91.3649 22.17 91.2449 21.8775 90.9974 21.6675C90.7499 21.45 90.4499 21.3075 90.0824 21.225C89.7149 21.1425 89.3174 21.045 88.8824 20.9325C88.4474 20.82 88.0499 20.7 87.6824 20.5725C87.3149 20.445 87.0074 20.22 86.7674 19.905C86.5199 19.59 86.3999 19.1925 86.3999 18.7125Z" fill="#FEAE95"/>
<path d="M98.2725 24.8775C97.0725 24.8775 96.09 24.48 95.3325 23.685C94.575 22.89 94.2 21.84 94.2 20.535C94.2 19.23 94.5825 18.18 95.3475 17.3925C96.1125 16.605 97.1025 16.2075 98.325 16.2075C99.5475 16.2075 100.522 16.5825 101.265 17.3325C102.007 18.0825 102.375 19.035 102.375 20.1975C102.375 20.49 102.352 20.7675 102.315 21.0225H95.6325C95.67 21.8625 95.9325 22.5225 96.42 23.0025C96.9075 23.49 97.5225 23.73 98.28 23.73C98.85 23.73 99.33 23.6025 99.7275 23.3475C100.117 23.0925 100.41 22.755 100.59 22.335H102.09C101.827 23.07 101.37 23.6775 100.717 24.1575C100.072 24.6375 99.255 24.8775 98.28 24.8775H98.2725ZM100.155 18.075C99.6525 17.5875 99.0375 17.3475 98.295 17.3475C97.5525 17.3475 96.9375 17.5875 96.45 18.06C95.9625 18.5325 95.6925 19.185 95.64 20.01H100.92C100.912 19.2075 100.657 18.5625 100.155 18.075Z" fill="#FEAE95"/>
<path d="M116.002 24.735L115.177 22.41H110.467L109.642 24.735H108.217L112.072 14.13H113.602L117.442 24.735H116.002ZM110.865 21.3075H114.78L112.822 15.8325L110.865 21.3075Z" fill="#FEAE95"/>
<path d="M120.653 16.335V17.76C121.155 16.7175 122.003 16.2 123.21 16.2V17.655H122.843C122.13 17.655 121.583 17.8425 121.215 18.21C120.84 18.585 120.66 19.23 120.66 20.145V24.735H119.265V16.335H120.66H120.653Z" fill="#FEAE95"/>
<path d="M126.27 14.715C126.082 14.895 125.865 14.9925 125.595 14.9925C125.325 14.9925 125.107 14.9025 124.927 14.715C124.747 14.5275 124.657 14.31 124.657 14.04C124.657 13.77 124.747 13.5525 124.935 13.365C125.122 13.1775 125.34 13.0875 125.602 13.0875C125.865 13.0875 126.082 13.1775 126.27 13.365C126.457 13.5525 126.547 13.77 126.547 14.04C126.547 14.31 126.457 14.5275 126.27 14.715ZM124.89 24.735V16.335H126.285V24.735H124.89Z" fill="#FEAE95"/>
<path d="M132.097 24.8775C130.897 24.8775 129.915 24.48 129.157 23.685C128.4 22.89 128.025 21.84 128.025 20.535C128.025 19.23 128.407 18.18 129.172 17.3925C129.937 16.605 130.927 16.2075 132.15 16.2075C133.372 16.2075 134.347 16.5825 135.09 17.3325C135.832 18.0825 136.2 19.035 136.2 20.1975C136.2 20.49 136.177 20.7675 136.14 21.0225H129.457C129.495 21.8625 129.757 22.5225 130.245 23.0025C130.732 23.49 131.347 23.73 132.105 23.73C132.675 23.73 133.155 23.6025 133.552 23.3475C133.942 23.0925 134.235 22.755 134.415 22.335H135.915C135.652 23.07 135.195 23.6775 134.542 24.1575C133.897 24.6375 133.08 24.8775 132.105 24.8775H132.097ZM133.98 18.075C133.477 17.5875 132.862 17.3475 132.12 17.3475C131.377 17.3475 130.762 17.5875 130.275 18.06C129.787 18.5325 129.517 19.185 129.465 20.01H134.745C134.737 19.2075 134.482 18.5625 133.98 18.075ZM133.597 14.685V15.7575L130.342 14.0475V12.765L133.597 14.6925V14.685Z" fill="#FEAE95"/>
<path d="M138.517 23.64C137.752 22.8225 137.37 21.765 137.37 20.49C137.37 19.215 137.752 18.1725 138.51 17.385C139.267 16.5975 140.227 16.2 141.375 16.2C142.087 16.2 142.71 16.365 143.25 16.7025C143.79 17.04 144.187 17.475 144.465 18.015V16.335H145.875V24.945C145.875 26.1 145.5 27.0375 144.757 27.765C144.015 28.4925 143.07 28.86 141.93 28.86C140.79 28.86 139.845 28.5975 139.095 28.065C138.345 27.5325 137.917 26.8425 137.82 25.9875H139.185C139.32 26.4675 139.627 26.865 140.115 27.18C140.602 27.495 141.21 27.6525 141.937 27.6525C142.665 27.6525 143.265 27.4125 143.752 26.94C144.24 26.4675 144.48 25.8 144.48 24.945V23.0175C144.202 23.565 143.797 24.015 143.265 24.36C142.732 24.705 142.102 24.87 141.39 24.87C140.25 24.87 139.297 24.4575 138.532 23.64H138.517ZM143.632 22.8225C144.187 22.2525 144.465 21.495 144.465 20.5425C144.465 19.59 144.187 18.8325 143.632 18.2625C143.077 17.6925 142.41 17.4075 141.63 17.4075C140.85 17.4075 140.182 17.685 139.627 18.2325C139.072 18.78 138.795 19.53 138.795 20.4825C138.795 21.435 139.072 22.2 139.635 22.7925C140.197 23.385 140.865 23.6775 141.637 23.6775C142.41 23.6775 143.077 23.3925 143.632 22.8225Z" fill="#FEAE95"/>
<path d="M151.695 24.8775C150.495 24.8775 149.512 24.48 148.755 23.685C147.997 22.89 147.622 21.84 147.622 20.535C147.622 19.23 148.005 18.18 148.77 17.3925C149.535 16.605 150.525 16.2075 151.747 16.2075C152.97 16.2075 153.945 16.5825 154.687 17.3325C155.43 18.0825 155.797 19.035 155.797 20.1975C155.797 20.49 155.775 20.7675 155.737 21.0225H149.055C149.092 21.8625 149.355 22.5225 149.842 23.0025C150.33 23.49 150.945 23.73 151.702 23.73C152.272 23.73 152.752 23.6025 153.15 23.3475C153.54 23.0925 153.832 22.755 154.012 22.335H155.512C155.25 23.07 154.792 23.6775 154.14 24.1575C153.495 24.6375 152.677 24.8775 151.702 24.8775H151.695ZM153.577 18.075C153.075 17.5875 152.46 17.3475 151.717 17.3475C150.975 17.3475 150.36 17.5875 149.872 18.06C149.385 18.5325 149.115 19.185 149.062 20.01H154.342C154.335 19.2075 154.08 18.5625 153.577 18.075Z" fill="#FEAE95"/>
</svg>
